<svg id="Vrstva_1" data-name="Vrstva 1" xmlns="http://www.w3.org/2000/svg" viewBox="0 0 659.89 164.82"><defs><style>.cls-1{fill:#6f4da0;}.cls-2{fill:#939;}</style></defs><path class="cls-1" d="M56.52,78.58a133.77,133.77,0,0,1-22.13-1.75A135.81,135.81,0,0,1,3.33,67.72,5.5,5.5,0,0,1,7.67,57.61,124.6,124.6,0,0,0,36.19,66a133.86,133.86,0,0,0,31,1.23C77.45,66.54,99,63.83,128,53.26c9.27-3.38,16.11-6.41,21.6-8.84,10.85-4.81,18-8,30.42-8H180a78.69,78.69,0,0,1,31.5,6.78,5.5,5.5,0,1,1-4.39,10.09A67.81,67.81,0,0,0,180,47.42h0c-10.09,0-15.73,2.51-26,7-5.65,2.51-12.67,5.62-22.3,9.13-30.27,11-53,13.88-63.79,14.59Q62,78.58,56.52,78.58Z"/><path class="cls-1" d="M153.68,54.33c-2.54-1.78-4.88-3.71-7.37-5.75l-2.17-1.78c-3.39,1.47-7.26,3.08-11.75,4.8,2.49,1.82,4.73,3.66,6.94,5.48l3,2.43c4.52-1.85,8.32-3.53,11.63-5Z"/><path class="cls-1" d="M59.25,38.83a92.25,92.25,0,0,1,57.45,4,74.34,74.34,0,0,1,8.36,4l.5-.18c4.63-1.69,8.64-3.29,12.19-4.78a83.44,83.44,0,0,0-16.85-9.26,103.25,103.25,0,0,0-64.35-4.48,5.5,5.5,0,1,0,2.7,10.66Z"/><path class="cls-1" d="M209.06,67.17c-18.92,1-34.92-1.81-47.71-8.27l-4.5,2c-2.38,1.06-5,2.23-8,3.48,14,9.3,31.76,14,52.91,14,2.56,0,5.18-.07,7.84-.21a5.5,5.5,0,1,0-.57-11Z"/><path class="cls-1" d="M180,129.93H180c-12.41,0-19.57-3.19-30.42-8-5.49-2.43-12.33-5.46-21.6-8.84-29-10.57-50.51-13.28-60.75-14a133.86,133.86,0,0,0-31,1.23,124.6,124.6,0,0,0-28.52,8.37A5.5,5.5,0,0,1,3.33,98.63a135.81,135.81,0,0,1,31.06-9.11,145,145,0,0,1,33.54-1.36c10.83.71,33.52,3.56,63.79,14.59,9.63,3.51,16.65,6.62,22.3,9.13,10.24,4.54,15.88,7,26,7.05h0a67.81,67.81,0,0,0,27.11-5.87,5.5,5.5,0,1,1,4.39,10.09A78.69,78.69,0,0,1,180,129.93Z"/><path class="cls-1" d="M146.31,117.56c2.49-2,4.83-4,7.37-5.75l.07,0c-3.31-1.47-7.1-3.15-11.61-5-.95.77-1.89,1.53-2.81,2.29-2.27,1.86-4.56,3.75-7.13,5.61,4.5,1.72,8.37,3.34,11.77,4.81Z"/><path class="cls-1" d="M125.56,119.66l-.73-.26a75.55,75.55,0,0,1-8.13,3.92,91.72,91.72,0,0,1-26.94,6.48,92.22,92.22,0,0,1-30.51-2.49A5.5,5.5,0,1,0,56.55,138a103.09,103.09,0,0,0,25.35,3.17q4.39,0,8.79-.38a102.89,102.89,0,0,0,30.21-7.27,83.35,83.35,0,0,0,16.67-9.13C134.07,122.9,130.11,121.32,125.56,119.66Z"/><path class="cls-1" d="M156.85,105.48l4.28,1.88C174,100.81,190,98,209.06,99a5.5,5.5,0,1,0,.57-11c-24.73-1.29-45.2,3.41-60.93,13.93C151.73,103.21,154.42,104.4,156.85,105.48Z"/><path class="cls-1" d="M232.62,0a88.87,88.87,0,0,0-20.26,2.34c-.21,0-.57.14-.76.17-8.92,1.41-5.77,48.61-7,78.45-2.59,62.6,6.79,81.3,7,81.35l.36.09.4.09a89.44,89.44,0,0,0,20.26,2.33c47.37,0,85.77-36.89,85.77-82.41S280,0,232.62,0Z"/><path class="cls-1" d="M342.14,32.82a13.17,13.17,0,0,1-9.65-4.05,13.17,13.17,0,0,1-4.05-9.65,13.18,13.18,0,0,1,4.05-9.65,13.52,13.52,0,0,1,19.3,0,13.18,13.18,0,0,1,4,9.65,13.17,13.17,0,0,1-4,9.65A13.17,13.17,0,0,1,342.14,32.82Zm0,132a10.29,10.29,0,0,1-10.59-10.58V61.88a10.2,10.2,0,0,1,3-7.68,10.55,10.55,0,0,1,18.17,7.68v92.36a10.44,10.44,0,0,1-2.91,7.57A10.18,10.18,0,0,1,342.14,164.82Z"/><path class="cls-1" d="M428.89,165.65a56.76,56.76,0,0,1-29.16-7.57,56,56,0,0,1-20.54-20.65A57.63,57.63,0,0,1,371.61,108a61.25,61.25,0,0,1,6.95-29.37,54,54,0,0,1,19-20.54,50,50,0,0,1,27.19-7.58A51.08,51.08,0,0,1,464.8,69.35v-56a10.18,10.18,0,0,1,3-7.68,11.44,11.44,0,0,1,15.25,0A10.38,10.38,0,0,1,486,13.31V108a57.73,57.73,0,0,1-7.58,29.48,55.82,55.82,0,0,1-49.5,28.22Zm0-18.68a35.44,35.44,0,0,0,18.89-5.08,36.06,36.06,0,0,0,13.08-14A41.6,41.6,0,0,0,465.63,108,40.81,40.81,0,0,0,460.86,88a36.46,36.46,0,0,0-13.08-13.8,37.39,37.39,0,0,0-37.67,0A36.9,36.9,0,0,0,396.83,88,40,40,0,0,0,392,108a40.77,40.77,0,0,0,4.88,19.93,36.48,36.48,0,0,0,13.28,14A35.55,35.55,0,0,0,428.89,147Z"/><path class="cls-1" d="M567.33,32.82a13.15,13.15,0,0,1-9.65-4.05,13.17,13.17,0,0,1-4-9.65,13.18,13.18,0,0,1,4-9.65,13.52,13.52,0,0,1,19.3,0,13.18,13.18,0,0,1,4,9.65,13.17,13.17,0,0,1-4,9.65A13.18,13.18,0,0,1,567.33,32.82Zm0,132a10.29,10.29,0,0,1-10.59-10.58V61.88a10.17,10.17,0,0,1,3-7.68,10.54,10.54,0,0,1,18.16,7.68v92.36a10.48,10.48,0,0,1-2.9,7.57A10.18,10.18,0,0,1,567.33,164.82Z"/><path class="cls-1" d="M597.83,73.29a10,10,0,0,1-7.05-2.49,8.13,8.13,0,0,1-2.7-6.23,8.61,8.61,0,0,1,2.7-6.64,10,10,0,0,1,7.05-2.49h47.95a10,10,0,0,1,7.06,2.49,8.64,8.64,0,0,1,2.69,6.64,8.15,8.15,0,0,1-2.69,6.23,10,10,0,0,1-7.06,2.49Zm46.08,91.53a34,34,0,0,1-18.68-5.29,37.16,37.16,0,0,1-13.07-14.43,43.54,43.54,0,0,1-4.78-20.54v-99a10.38,10.38,0,1,1,20.76,0v99a21.3,21.3,0,0,0,4.56,13.9,14,14,0,0,0,11.21,5.61H651a8.19,8.19,0,0,1,6.33,2.9,10.8,10.8,0,0,1,2.59,7.47,9.37,9.37,0,0,1-3.42,7.48,13.22,13.22,0,0,1-8.82,2.9Z"/><ellipse class="cls-2" cx="342.13" cy="19.14" rx="13.69" ry="13.72"/><ellipse class="cls-2" cx="567.33" cy="19.14" rx="13.69" ry="13.72"/></svg>