<?xml version="1.0" encoding="UTF-8" standalone="no"?>
<!-- Created with Inkscape (http://www.inkscape.org/) -->

<svg
   width="210.0mm"
   height="297.0mm"
   viewBox="0 0 210.0 297.0"
   version="1.1"
   id="SVGRoot"
   sodipodi:docname="title.svg"
   xml:space="preserve"
   inkscape:export-filename="../Documents/Development/didit/docs/titlepage.pdf"
   inkscape:export-xdpi="96"
   inkscape:export-ydpi="96"
   inkscape:version="1.2.1 (9c6d41e, 2022-07-14)"
   xmlns:inkscape="http://www.inkscape.org/namespaces/inkscape"
   xmlns:sodipodi="http://sodipodi.sourceforge.net/DTD/sodipodi-0.dtd"
   xmlns="http://www.w3.org/2000/svg"
   xmlns:svg="http://www.w3.org/2000/svg"><sodipodi:namedview
     id="namedview254"
     pagecolor="#ffffff"
     bordercolor="#666666"
     borderopacity="1.0"
     inkscape:showpageshadow="2"
     inkscape:pageopacity="0.0"
     inkscape:pagecheckerboard="0"
     inkscape:deskcolor="#d1d1d1"
     inkscape:document-units="mm"
     showgrid="false"
     inkscape:zoom="0.69044441"
     inkscape:cx="301.97941"
     inkscape:cy="558.33604"
     inkscape:window-width="1680"
     inkscape:window-height="997"
     inkscape:window-x="0"
     inkscape:window-y="25"
     inkscape:window-maximized="1"
     inkscape:current-layer="layer1" /><defs
     id="defs249"><rect
       x="147.05913"
       y="559.58864"
       width="625.78713"
       height="164.71304"
       id="rect4226" /><style
       id="style770">.cls-1{fill:#6f4da0;}.cls-2{fill:#939;}</style></defs><g
     inkscape:label="Layer 1"
     inkscape:groupmode="layer"
     id="layer1"><rect
       style="fill:#eddcff;fill-rule:evenodd;stroke-width:0.264583;fill-opacity:1"
       id="rect2442"
       width="230.42447"
       height="314.81238"
       x="-8.5903864"
       y="-8.0850687" /><g
       id="g823"
       transform="matrix(0.18610409,0,0,0.18610409,34.496612,68.905244)"><path
         class="cls-1"
         d="M 56.52,78.58 A 133.77,133.77 0 0 1 34.39,76.83 135.81,135.81 0 0 1 3.33,67.72 5.501084,5.501084 0 0 1 7.67,57.61 124.6,124.6 0 0 0 36.19,66 a 133.86,133.86 0 0 0 31,1.23 C 77.45,66.54 99,63.83 128,53.26 c 9.27,-3.38 16.11,-6.41 21.6,-8.84 10.85,-4.81 18,-8 30.42,-8 H 180 A 78.69,78.69 0 0 1 211.5,43.2 5.5018224,5.5018224 0 1 1 207.11,53.29 67.81,67.81 0 0 0 180,47.42 v 0 c -10.09,0 -15.73,2.51 -26,7 -5.65,2.51 -12.67,5.62 -22.3,9.13 -30.27,11 -53,13.88 -63.79,14.59 Q 62,78.58 56.52,78.58 Z"
         id="path774" /><path
         class="cls-1"
         d="m 153.68,54.33 c -2.54,-1.78 -4.88,-3.71 -7.37,-5.75 l -2.17,-1.78 c -3.39,1.47 -7.26,3.08 -11.75,4.8 2.49,1.82 4.73,3.66 6.94,5.48 l 3,2.43 c 4.52,-1.85 8.32,-3.53 11.63,-5 z"
         id="path776" /><path
         class="cls-1"
         d="m 59.25,38.83 a 92.25,92.25 0 0 1 57.45,4 74.34,74.34 0 0 1 8.36,4 l 0.5,-0.18 c 4.63,-1.69 8.64,-3.29 12.19,-4.78 a 83.44,83.44 0 0 0 -16.85,-9.26 103.25,103.25 0 0 0 -64.35,-4.48 5.5,5.5 0 1 0 2.7,10.66 z"
         id="path778" /><path
         class="cls-1"
         d="m 209.06,67.17 c -18.92,1 -34.92,-1.81 -47.71,-8.27 l -4.5,2 c -2.38,1.06 -5,2.23 -8,3.48 14,9.3 31.76,14 52.91,14 2.56,0 5.18,-0.07 7.84,-0.21 a 5.5073791,5.5073791 0 1 0 -0.57,-11 z"
         id="path780" /><path
         class="cls-1"
         d="m 180,129.93 v 0 c -12.41,0 -19.57,-3.19 -30.42,-8 -5.49,-2.43 -12.33,-5.46 -21.6,-8.84 -29,-10.57 -50.51,-13.28 -60.75,-14 a 133.86,133.86 0 0 0 -31,1.23 124.6,124.6 0 0 0 -28.52,8.37 5.5,5.5 0 0 1 -4.38,-10.06 135.81,135.81 0 0 1 31.06,-9.11 145,145 0 0 1 33.54,-1.36 c 10.83,0.71 33.52,3.56 63.79,14.59 9.63,3.51 16.65,6.62 22.3,9.13 10.24,4.54 15.88,7 26,7.05 v 0 a 67.81,67.81 0 0 0 27.11,-5.87 5.5018224,5.5018224 0 1 1 4.39,10.09 78.69,78.69 0 0 1 -31.52,6.78 z"
         id="path782" /><path
         class="cls-1"
         d="m 146.31,117.56 c 2.49,-2 4.83,-4 7.37,-5.75 h 0.07 c -3.31,-1.47 -7.1,-3.15 -11.61,-5 -0.95,0.77 -1.89,1.53 -2.81,2.29 -2.27,1.86 -4.56,3.75 -7.13,5.61 4.5,1.72 8.37,3.34 11.77,4.81 z"
         id="path784" /><path
         class="cls-1"
         d="m 125.56,119.66 -0.73,-0.26 a 75.55,75.55 0 0 1 -8.13,3.92 91.72,91.72 0 0 1 -26.94,6.48 92.22,92.22 0 0 1 -30.51,-2.49 5.5128509,5.5128509 0 1 0 -2.7,10.69 103.09,103.09 0 0 0 25.35,3.17 q 4.39,0 8.79,-0.38 a 102.89,102.89 0 0 0 30.21,-7.27 83.35,83.35 0 0 0 16.67,-9.13 c -3.5,-1.49 -7.46,-3.07 -12.01,-4.73 z"
         id="path786" /><path
         class="cls-1"
         d="m 156.85,105.48 4.28,1.88 C 174,100.81 190,98 209.06,99 a 5.5073791,5.5073791 0 1 0 0.57,-11 c -24.73,-1.29 -45.2,3.41 -60.93,13.93 3.03,1.28 5.72,2.47 8.15,3.55 z"
         id="path788" /><path
         class="cls-1"
         d="m 232.62,0 a 88.87,88.87 0 0 0 -20.26,2.34 c -0.21,0 -0.57,0.14 -0.76,0.17 -8.92,1.41 -5.77,48.61 -7,78.45 -2.59,62.6 6.79,81.3 7,81.35 l 0.36,0.09 0.4,0.09 a 89.44,89.44 0 0 0 20.26,2.33 c 47.37,0 85.77,-36.89 85.77,-82.41 C 318.39,36.89 280,0 232.62,0 Z"
         id="path790" /><path
         class="cls-1"
         d="m 342.14,32.82 a 13.17,13.17 0 0 1 -9.65,-4.05 13.17,13.17 0 0 1 -4.05,-9.65 13.18,13.18 0 0 1 4.05,-9.65 13.52,13.52 0 0 1 19.3,0 13.18,13.18 0 0 1 4,9.65 13.17,13.17 0 0 1 -4,9.65 13.17,13.17 0 0 1 -9.65,4.05 z m 0,132 A 10.29,10.29 0 0 1 331.55,154.24 V 61.88 a 10.2,10.2 0 0 1 3,-7.68 10.55,10.55 0 0 1 18.17,7.68 v 92.36 a 10.44,10.44 0 0 1 -2.91,7.57 10.18,10.18 0 0 1 -7.67,3.01 z"
         id="path792" /><path
         class="cls-1"
         d="m 428.89,165.65 a 56.76,56.76 0 0 1 -29.16,-7.57 56,56 0 0 1 -20.54,-20.65 57.63,57.63 0 0 1 -7.58,-29.43 61.25,61.25 0 0 1 6.95,-29.37 54,54 0 0 1 19,-20.54 50,50 0 0 1 27.19,-7.58 51.08,51.08 0 0 1 40.05,18.84 v -56 a 10.18,10.18 0 0 1 3,-7.68 11.44,11.44 0 0 1 15.25,0 10.38,10.38 0 0 1 2.95,7.64 V 108 a 57.73,57.73 0 0 1 -7.58,29.48 55.82,55.82 0 0 1 -49.5,28.22 z m 0,-18.68 a 35.44,35.44 0 0 0 18.89,-5.08 36.06,36.06 0 0 0 13.08,-14 41.6,41.6 0 0 0 4.77,-19.89 40.81,40.81 0 0 0 -4.77,-20 36.46,36.46 0 0 0 -13.08,-13.8 37.39,37.39 0 0 0 -37.67,0 36.9,36.9 0 0 0 -13.28,13.8 40,40 0 0 0 -4.83,20 40.77,40.77 0 0 0 4.88,19.93 36.48,36.48 0 0 0 13.28,14 35.55,35.55 0 0 0 18.73,5.07 z"
         id="path794" /><path
         class="cls-1"
         d="m 567.33,32.82 a 13.15,13.15 0 0 1 -9.65,-4.05 13.17,13.17 0 0 1 -4,-9.65 13.18,13.18 0 0 1 4,-9.65 13.52,13.52 0 0 1 19.3,0 13.18,13.18 0 0 1 4,9.65 13.17,13.17 0 0 1 -4,9.65 13.18,13.18 0 0 1 -9.65,4.05 z m 0,132 A 10.29,10.29 0 0 1 556.74,154.24 V 61.88 a 10.17,10.17 0 0 1 3,-7.68 10.54,10.54 0 0 1 18.16,7.68 v 92.36 a 10.48,10.48 0 0 1 -2.9,7.57 10.18,10.18 0 0 1 -7.67,3.01 z"
         id="path796" /><path
         class="cls-1"
         d="m 597.83,73.29 a 10,10 0 0 1 -7.05,-2.49 8.13,8.13 0 0 1 -2.7,-6.23 8.61,8.61 0 0 1 2.7,-6.64 10,10 0 0 1 7.05,-2.49 h 47.95 a 10,10 0 0 1 7.06,2.49 8.64,8.64 0 0 1 2.69,6.64 8.15,8.15 0 0 1 -2.69,6.23 10,10 0 0 1 -7.06,2.49 z m 46.08,91.53 a 34,34 0 0 1 -18.68,-5.29 37.16,37.16 0 0 1 -13.07,-14.43 43.54,43.54 0 0 1 -4.78,-20.54 v -99 a 10.38,10.38 0 1 1 20.76,0 v 99 a 21.3,21.3 0 0 0 4.56,13.9 14,14 0 0 0 11.21,5.61 H 651 a 8.19,8.19 0 0 1 6.33,2.9 10.8,10.8 0 0 1 2.59,7.47 9.37,9.37 0 0 1 -3.42,7.48 13.22,13.22 0 0 1 -8.82,2.9 z"
         id="path798" /><ellipse
         class="cls-2"
         cx="342.13"
         cy="19.139999"
         rx="13.69"
         ry="13.72"
         id="ellipse800" /><ellipse
         class="cls-2"
         cx="567.33002"
         cy="19.139999"
         rx="13.69"
         ry="13.72"
         id="ellipse802" /></g><text
       xml:space="preserve"
       transform="matrix(0.26458333,0,0,0.26458333,-16.843845,66.109996)"
       id="text4224"
       style="font-style:normal;font-weight:normal;font-size:53.3333px;line-height:1.25;font-family:sans-serif;text-align:center;white-space:pre;shape-inside:url(#rect4226);display:inline;fill:#6f4da0;fill-opacity:1;stroke:none"
       x="225.88867"
       y="0"><tspan
         x="364.11246"
         y="608.39504"
         id="tspan1480"><tspan
           style="font-weight:bold;font-family:Comfortaa;-inkscape-font-specification:'Comfortaa Bold'"
           id="tspan1478">Project </tspan></tspan><tspan
         x="243.47258"
         y="675.2112"
         id="tspan1484"><tspan
           style="font-weight:bold;font-family:Comfortaa;-inkscape-font-specification:'Comfortaa Bold'"
           id="tspan1482">Documentation</tspan></tspan></text></g></svg>
